<?xml version="1.0" encoding="UTF-8" standalone="no"?>
<svg
   xmlns:dc="http://purl.org/dc/elements/1.1/"
   xmlns:cc="http://creativecommons.org/ns#"
   xmlns:rdf="http://www.w3.org/1999/02/22-rdf-syntax-ns#"
   xmlns:svg="http://www.w3.org/2000/svg"
   xmlns="http://www.w3.org/2000/svg"
   xmlns:sodipodi="http://sodipodi.sourceforge.net/DTD/sodipodi-0.dtd"
   xmlns:inkscape="http://www.inkscape.org/namespaces/inkscape"
   version="1.1"
   id="Layer_1"
   x="0px"
   y="0px"
   width="64"
   height="64"
   viewBox="0 0 64 64"
   enable-background="new 0 0 100 100"
   xml:space="preserve"
   inkscape:version="0.48.3.1 r9886"
   sodipodi:docname="icon.svg"
   inkscape:export-filename="C:\Users\Joel\Documents\Opera Extensions\UserScript Packager\img\icon.png"
   inkscape:export-xdpi="90"
   inkscape:export-ydpi="90"><metadata
   id="metadata3055"><rdf:RDF><cc:Work
       rdf:about=""><dc:format>image/svg+xml</dc:format><dc:type
         rdf:resource="http://purl.org/dc/dcmitype/StillImage" /><dc:title></dc:title></cc:Work></rdf:RDF></metadata><defs
   id="defs3053" /><sodipodi:namedview
   pagecolor="#ffffff"
   bordercolor="#666666"
   borderopacity="1"
   objecttolerance="10"
   gridtolerance="10"
   guidetolerance="10"
   inkscape:pageopacity="0"
   inkscape:pageshadow="2"
   inkscape:window-width="1600"
   inkscape:window-height="848"
   id="namedview3051"
   showgrid="false"
   inkscape:snap-global="true"
   inkscape:zoom="5.6568542"
   inkscape:cx="27.579806"
   inkscape:cy="23.67972"
   inkscape:window-x="1016"
   inkscape:window-y="-8"
   inkscape:window-maximized="1"
   inkscape:current-layer="Layer_1"><inkscape:grid
     type="xygrid"
     id="grid3917"
     empspacing="5"
     visible="true"
     enabled="true"
     snapvisiblegridlinesonly="true" /></sodipodi:namedview>
<path
   display="none"
   d="m 69.172,-24.735 c -0.191,-0.192 -0.502,-0.192 -0.695,0 L 11.639,32.029 c -0.192,0.191 -0.192,0.501 0,0.692 l 19.207,19.184 c 0.096,0.095 0.222,0.143 0.348,0.143 0.125,0 0.251,-0.048 0.347,-0.143 L 88.38,-4.86 c 0.093,-0.092 0.145,-0.216 0.145,-0.347 0,-0.131 -0.052,-0.255 -0.145,-0.347 L 69.172,-24.735 z"
   id="path3037"
   inkscape:connector-curvature="0"
   style="display:none" />
<path
   display="none"
   d="m 96.846,-26.88 -6.319,-6.311 C 88.713,-35.002 86.301,-36 83.735,-36 c -2.564,0 -4.977,0.998 -6.79,2.809 l -6.319,6.311 c -0.093,0.092 -0.145,0.216 -0.145,0.347 0,0.13 0.052,0.254 0.145,0.346 l 19.207,19.182 c 0.092,0.092 0.218,0.144 0.348,0.144 0.131,0 0.255,-0.052 0.346,-0.144 l 6.319,-6.311 c 1.814,-1.812 2.813,-4.22 2.813,-6.783 0,-2.561 -0.999,-4.969 -2.813,-6.781 z"
   id="path3039"
   inkscape:connector-curvature="0"
   style="display:none" />
<path
   display="none"
   d="m 10.358,33.967 c -0.122,-0.121 -0.296,-0.172 -0.464,-0.129 -0.167,0.04 -0.3,0.165 -0.351,0.33 L 0.363,63.363 C 0.308,63.541 0.357,63.732 0.49,63.861 0.584,63.952 0.707,64 0.832,64 0.886,64 0.942,63.989 0.996,63.971 L 29.383,53.959 c 0.159,-0.056 0.278,-0.188 0.315,-0.354 0.037,-0.164 -0.012,-0.337 -0.132,-0.455 L 10.358,33.967 z"
   id="path3041"
   inkscape:connector-curvature="0"
   style="display:none" />




<text
   xml:space="preserve"
   style="font-size:28px;font-style:normal;font-variant:normal;font-weight:bold;font-stretch:normal;line-height:125%;letter-spacing:0px;word-spacing:0px;fill:#000000;fill-opacity:1;stroke:none;font-family:Segoe WP;-inkscape-font-specification:Segoe WP Bold"
   x="3.4506931"
   y="58.875759"
   id="text3102"
   sodipodi:linespacing="125%"><tspan
     sodipodi:role="line"
     id="tspan3104"
     x="3.4506931"
     y="58.875759">.oex</tspan></text>
<path
   style="fill:#00aa00;stroke:#00aa00;stroke-width:2;stroke-linejoin:round;stroke-miterlimit:4;stroke-opacity:1;stroke-dasharray:none"
   inkscape:transform-center-y="1.2547903"
   d="M 39.214976,33.033359 36.107488,36.79773 33,40.5621 l -3.107488,-3.76437 -3.107488,-3.764371 6.214976,0 z"
   id="path3106"
   inkscape:connector-curvature="0" /><text
   xml:space="preserve"
   style="font-size:28px;font-style:normal;font-variant:normal;font-weight:bold;font-stretch:normal;line-height:125%;letter-spacing:0px;word-spacing:0px;fill:#000000;fill-opacity:1;stroke:none;font-family:Segoe WP;-inkscape-font-specification:Segoe WP Bold"
   x="16.866661"
   y="24.584215"
   id="text3102-7"
   sodipodi:linespacing="125%"><tspan
     sodipodi:role="line"
     id="tspan3104-4"
     x="16.866661"
     y="24.584215">.js</tspan></text>
</svg>